<svg xmlns="http://www.w3.org/2000/svg" width="362.59" height="362.59" viewBox="0 0 362.59 362.59">
  <defs>
    <style>
      .cls-1 {
        fill: #999;
      }
    </style>
  </defs>
  <g id="Layer_2" data-name="Layer 2">
    <g id="Layer_1-2" data-name="Layer 1">
      <path class="cls-1" d="M181.29,0C81.32,0,0,81.33,0,181.3S81.32,362.59,181.29,362.59s181.3-81.33,181.3-181.29S281.26,0,181.29,0Zm0,351.59C87.39,351.59,11,275.2,11,181.3S87.39,11,181.29,11s170.3,76.39,170.3,170.3S275.19,351.59,181.29,351.59Z"/>
      <path class="cls-1" d="M261.22,181.3a5.5,5.5,0,0,1-5.5,5.5H120.15l54.7,54.7a5.5,5.5,0,1,1-7.77,7.78L103,185.18a5.49,5.49,0,0,1,0-7.77l64.11-64.1a5.5,5.5,0,0,1,7.77,7.78l-54.7,54.71H255.72A5.49,5.49,0,0,1,261.22,181.3Z"/>
    </g>
  </g>
</svg>
